<?xml version="1.0" encoding="UTF-8"?>
<svg width="394px" height="191px" viewBox="0 0 394 191" version="1.1" xmlns="http://www.w3.org/2000/svg" xmlns:xlink="http://www.w3.org/1999/xlink"><link xmlns="" type="text/css" rel="stylesheet" id="dark-mode-custom-link"/><link xmlns="" type="text/css" rel="stylesheet" id="dark-mode-general-link"/><style xmlns="" lang="en" type="text/css" id="dark-mode-custom-style"/><style xmlns="" lang="en" type="text/css" id="dark-mode-native-style"/><style xmlns="" lang="en" type="text/css" id="dark-mode-native-sheet"/>
    <!-- Generator: Sketch 54.1 (76490) - https://sketchapp.com -->
    <title>Brand/Logo Main Copy 3</title>
    <desc>Created with Sketch.</desc>
    <g id="Brand/Logo-Main-Copy-3" stroke="none" stroke-width="1" fill="none" fill-rule="evenodd">
        <g id="Group" transform="translate(30.000000, 37.000000)">
            <path d="M113.641396,76.8847655 C116.70732,75.0292219 119.130775,72.4930461 120.910874,69.2735758 C122.688311,66.0558804 123.579248,62.4406319 123.579248,58.4260555 C123.579248,54.4132539 122.688311,50.77937 120.910874,47.5217418 C119.130775,44.2667758 116.70732,41.7110773 113.641396,39.8546463 C110.574586,37.9999901 107.146608,37.0717746 103.361901,37.0717746 C99.5745315,37.0717746 96.1483288,37.9999901 93.0824054,39.8546463 C90.0155946,41.7110773 87.6107748,44.2667758 85.8688333,47.5217418 C84.1260045,50.77937 83.2563649,54.4132539 83.2563649,58.4260555 C83.2563649,62.4406319 84.1260045,66.0558804 85.8688333,69.2735758 C87.6107748,72.4930461 90.0155946,75.0292219 93.0824054,76.8847655 C96.1483288,78.7411965 99.5745315,79.6676372 103.361901,79.6676372 C107.146608,79.6676372 110.574586,78.7411965 113.641396,76.8847655 Z M119.320676,30.9948914 C124.128541,33.7600152 127.896387,37.5456437 130.621554,42.3535515 C133.348495,47.1632341 134.710635,52.5195522 134.710635,58.4260555 C134.710635,64.3325587 133.442559,69.6906516 130.905518,74.4985595 C128.36759,79.3082421 124.886369,83.0752352 120.455644,85.8013136 C116.026694,88.5265047 111.084833,89.8895439 105.632725,89.8895439 C101.241045,89.8895439 97.151964,88.9817385 93.365482,87.1643528 C89.5781126,85.3460798 86.3604459,82.8107914 83.7115946,79.5540506 L83.7115946,110.221545 C83.7115946,111.962615 83.1800495,113.362925 82.1213964,114.425137 C81.0591937,115.4838 79.6588964,116.015349 77.9178423,116.015349 C76.2513288,116.015349 74.8687793,115.4838 73.7719685,114.425137 C72.6742703,113.362925 72.1249775,111.962615 72.1249775,110.221545 L72.1249775,58.4260555 C72.1249775,52.5195522 73.5066396,47.1632341 76.2708514,42.3535515 C79.0350631,37.5456437 82.7825,33.7600152 87.5158243,30.9948914 C92.2473739,28.2315424 97.5291036,26.8489805 103.361901,26.8489805 C109.191149,26.8489805 114.511036,28.2315424 119.320676,30.9948914 L119.320676,30.9948914 Z" id="Fill-1" fill="#CC0000"/>
            <path d="M173.38564,79.6676372 C174.331595,80.728962 174.805459,82.0911138 174.805459,83.7558674 C174.805459,85.4223958 174.180739,86.785435 172.931297,87.8458724 C171.681856,88.9071972 170.072135,89.4351975 168.10391,89.4351975 L166.059369,89.4351975 C162.348315,89.4351975 158.96027,88.4705987 155.893459,86.5396265 C152.826649,84.6077669 150.421829,81.9775272 148.680775,78.6444704 C146.937946,75.3131884 146.068306,71.5648306 146.068306,67.3993969 L146.068306,39.3435066 L140.843369,39.3435066 C139.253171,39.3435066 137.964685,38.8891602 136.981459,37.9804674 C135.996459,37.0717746 135.504847,35.9359085 135.504847,34.5728693 C135.504847,33.0589729 135.996459,31.8459035 136.981459,30.9380981 C137.964685,30.0294053 139.253171,29.5750589 140.843369,29.5750589 L146.068306,29.5750589 L146.068306,13.2185884 C146.068306,11.5538348 146.597189,10.1907956 147.658505,9.1294708 C148.718045,8.06992079 150.081072,7.53925839 151.747586,7.53925839 C153.412324,7.53925839 154.775351,8.06992079 155.836667,9.1294708 C156.896207,10.1907956 157.426865,11.5538348 157.426865,13.2185884 L157.426865,29.5750589 L167.08164,29.5750589 C168.671838,29.5750589 169.95855,30.0294053 170.94355,30.9380981 C171.926775,31.8459035 172.420162,33.0589729 172.420162,34.5728693 C172.420162,35.9359085 171.926775,37.0717746 170.94355,37.9804674 C169.95855,38.8891602 168.671838,39.3435066 167.08164,39.3435066 L157.426865,39.3435066 L157.426865,67.3993969 C157.426865,70.4289645 158.259234,72.9651404 159.925748,75.0096992 C161.590486,77.054258 163.635027,78.0774248 166.059369,78.0774248 L169.921279,78.0774248 C171.284306,78.0774248 172.43791,78.6071998 173.38564,79.6676372" id="Fill-2" fill="#0A0B09"/>
            <path d="M220.352392,28.4391929 C222.623216,29.6513749 223.759072,31.1652713 223.759072,32.9826569 C223.759072,33.5133193 223.720027,33.8913497 223.645486,34.1185229 C222.963973,36.5437743 221.448315,37.7532942 219.102063,37.7532942 C218.722261,37.7532942 218.154333,37.678753 217.398279,37.526121 C214.368739,36.9972333 211.907126,36.7310148 210.015216,36.7310148 C204.563108,36.7310148 200.170541,37.9804674 196.839288,40.4793726 C193.506261,42.9782778 191.841523,46.3486052 191.841523,50.58858 L191.841523,83.7558674 C191.841523,85.5741404 191.367658,86.9753376 190.42259,87.9585716 C189.473973,88.9444678 188.054153,89.4351975 186.162243,89.4351975 C184.344874,89.4351975 182.942802,88.9631031 181.959577,88.0162523 C180.975464,87.0694015 180.482964,85.6504564 180.482964,83.7558674 L180.482964,32.9826569 C180.482964,31.1652713 180.975464,29.7649615 181.959577,28.7799527 C182.942802,27.7967187 184.344874,27.3033269 186.162243,27.3033269 C189.947838,27.3033269 191.841523,29.1970285 191.841523,32.9826569 L191.841523,35.1408023 C194.113234,32.4910399 196.913829,30.4092105 200.246856,28.8935393 C203.578108,27.3796429 207.136532,26.6218073 210.924788,26.6218073 C214.937554,26.6218073 218.08068,27.2287857 220.352392,28.4391929" id="Fill-3" fill="#0A0B09"/>
            <path d="M236.651036,41.1608922 C233.204423,44.1904598 231.02855,48.2423068 230.119865,53.3146584 L267.943865,53.3146584 C267.262351,48.2423068 265.368667,44.1904598 262.264586,41.1608922 C259.15873,38.1330994 255.108694,36.6183155 250.110928,36.6183155 C244.582505,36.6183155 240.095874,38.1330994 236.651036,41.1608922 Z M276.917126,60.981754 C275.932126,61.9294922 274.682685,62.4015865 273.168802,62.4015865 L230.006279,62.4015865 C230.838649,67.7028861 233.243468,71.9819064 237.218964,75.2368724 C241.194459,78.4936132 246.059117,80.1210962 251.814712,80.1210962 C254.086423,80.1210962 256.452198,79.7066826 258.913811,78.8716436 C261.373649,78.0401542 263.400441,77.0169874 264.99064,75.8048054 C266.05018,74.9724286 267.299622,74.5553528 268.738964,74.5553528 C270.176532,74.5553528 271.312387,74.935158 272.146532,75.6912188 C273.509559,76.8270848 274.191072,78.1164702 274.191072,79.5540506 C274.191072,80.9170898 273.584099,82.0520684 272.373703,82.9616486 C269.798505,85.00532 266.598586,86.6718484 262.775721,87.9585716 C258.951081,89.247957 255.29682,89.8895439 251.814712,89.8895439 C245.604775,89.8895439 240.039081,88.5469147 235.117631,85.8572195 C230.194405,83.1710739 226.352018,79.440464 223.588694,74.6689394 C220.823595,69.8983021 219.44282,64.4851907 219.44282,58.4260555 C219.44282,52.368695 220.749054,46.9360609 223.361523,42.1272657 C225.973991,37.3175831 229.60873,33.5701126 234.265739,30.8813048 C238.922748,28.1942718 244.204477,26.8489805 250.110928,26.8489805 C255.941063,26.8489805 260.976099,28.1374785 265.217811,30.7109249 C269.457748,33.2861461 272.714459,36.8836467 274.986171,41.501652 C277.257883,46.121432 278.393739,51.4227316 278.393739,57.4037761 C278.393739,58.8431313 277.900351,60.0357906 276.917126,60.981754 L276.917126,60.981754 Z" id="Fill-4" fill="#0A0B09"/>
            <path d="M332.799459,84.6654476 C332.799459,86.3310886 332.117946,87.7322858 330.754919,88.8681518 C329.619063,89.7759573 328.406892,90.2311911 327.12018,90.2311911 C325.454554,90.2311911 324.09064,89.5487841 323.031986,88.1857449 L301.449838,61.4928937 L295.770559,66.4907041 L295.770559,83.869454 C295.770559,85.5368698 295.259423,86.8803863 294.237153,87.9026657 C293.214883,88.9240578 291.869604,89.4351975 290.204865,89.4351975 C288.538351,89.4351975 287.194847,88.9240578 286.172577,87.9026657 C285.151194,86.8803863 284.639171,85.5368698 284.639171,83.869454 L284.639171,6.28980578 C284.639171,4.62505216 285.151194,3.27976086 286.172577,2.25748146 C287.194847,1.23520205 288.538351,0.724062347 290.204865,0.724062347 C291.869604,0.724062347 293.214883,1.23520205 294.237153,2.25748146 C295.259423,3.27976086 295.770559,4.62505216 295.770559,6.28980578 L295.770559,52.5195522 L323.371856,27.8712599 C324.355081,26.8880259 325.529982,26.3946341 326.893896,26.3946341 C328.484095,26.3946341 329.769919,27.0016125 330.754919,28.2120197 C331.739032,29.1970285 332.231532,30.3701651 332.231532,31.7332043 C332.231532,33.3234167 331.624559,34.6119147 330.414162,35.5951487 L309.514414,54.2233513 L331.550018,81.2578496 C332.382387,82.165655 332.799459,83.301521 332.799459,84.6654476" id="Fill-5" fill="#0A0B09"/>
            <path d="M8.87111712,39.9141018 L6.55681081,39.9141018 C3.37641441,39.9141018 0.773707207,37.3113713 0.773707207,34.1309465 L0.773707207,31.8175069 C0.773707207,28.6361947 3.37641441,26.0334642 6.55681081,26.0334642 L8.87111712,26.0334642 C12.0515135,26.0334642 14.6542207,28.6361947 14.6542207,31.8175069 L14.6542207,34.1309465 C14.6542207,37.3113713 12.0515135,39.9141018 8.87111712,39.9141018" id="Fill-6" fill="#CC0000"/>
            <path d="M55.4900135,39.9141018 L53.1757072,39.9141018 C49.9953108,39.9141018 47.3926036,37.3113713 47.3926036,34.1309465 L47.3926036,31.8175069 C47.3926036,28.6361947 49.9953108,26.0334642 53.1757072,26.0334642 L55.4900135,26.0334642 C58.6704099,26.0334642 61.2731171,28.6361947 61.2731171,31.8175069 L61.2731171,34.1309465 C61.2731171,37.3113713 58.6704099,39.9141018 55.4900135,39.9141018" id="Fill-7" fill="#CC0000"/>
            <path d="M54.3328604,54.7309414 C52.2776712,54.7309414 50.3405045,54.2348874 48.614536,53.3750013 L48.614536,65.0140783 C48.614536,67.7401567 47.8762297,70.2017913 46.3996171,72.3972074 C44.9230045,74.5943982 42.878464,76.3354678 40.2659955,77.6230784 C37.653527,78.910689 34.7570946,79.5540506 31.5766982,79.5540506 C26.1245901,79.5540506 21.751545,77.9824735 18.4566757,74.8393193 C15.1635811,71.6979398 13.5165901,67.0586371 13.5165901,60.9249607 L13.5165901,53.3341811 C11.7702117,54.2198017 9.80287387,54.7309414 7.71396396,54.7309414 C5.63304054,54.7309414 3.67191441,54.2233513 1.92997297,53.3439425 L1.92997297,60.9249607 C1.92997297,67.0586371 3.10398649,72.3031435 5.45201351,76.6567049 C7.79826577,81.0120411 11.0549775,84.3246878 15.2203739,86.5955324 C19.3831081,88.8681518 24.0791622,90.0031305 29.3049865,90.0031305 C33.0905811,90.0031305 36.6481171,89.3411336 39.9820315,88.0162523 C43.3132838,86.6922585 46.1893063,84.8171922 48.614536,82.3937156 L48.614536,83.6422808 C48.614536,85.3088092 49.1629414,86.6922585 50.261527,87.7881917 C51.3583378,88.8867872 52.7408874,89.4351975 54.4074009,89.4351975 C56.148455,89.4351975 57.5487523,88.8867872 58.6100676,87.7881917 C59.6696081,86.6922585 60.1993784,85.3088092 60.1993784,83.6422808 L60.1993784,53.3031223 C58.4379144,54.2091529 56.4475045,54.7309414 54.3328604,54.7309414" id="Fill-8" fill="#CC0000"/>
        </g>
    </g>
</svg>